<svg width="60" height="10" viewBox="0 0 60 10" fill="none" xmlns="http://www.w3.org/2000/svg">
<path d="M6.01624 8.10788C6.10256 8.06331 6.20513 8.06331 6.29145 8.10788L9.35022 9.68682C9.58228 9.80661 9.84597 9.59324 9.77725 9.34129L9.00167 6.49788C8.96912 6.37857 9.01313 6.25152 9.1125 6.17789L11.6575 4.29223C11.8812 4.12655 11.7782 3.77211 11.5007 3.75197L8.05405 3.50188C7.94811 3.49419 7.85413 3.43105 7.80696 3.33587L6.42265 0.54243C6.31244 0.32004 5.99525 0.320039 5.88504 0.542429L4.50073 3.33587C4.45357 3.43105 4.35958 3.49419 4.25364 3.50188L0.807029 3.75197C0.529455 3.77211 0.42653 4.12655 0.650145 4.29223L3.19519 6.17789C3.29456 6.25152 3.33857 6.37857 3.30602 6.49788L2.53044 9.34129C2.46172 9.59324 2.72542 9.80661 2.95748 9.68682L6.01624 8.10788Z" fill="#FF6F61"/>
<path d="M17.9321 8.11652C18.0222 8.06691 18.1315 8.06691 18.2215 8.11652L21.0352 9.66576C21.2653 9.79247 21.5356 9.58316 21.4706 9.32864L20.7444 6.48884C20.715 6.374 20.756 6.25264 20.849 6.17914L23.2446 4.28585C23.4588 4.11657 23.354 3.77244 23.0818 3.75137L19.873 3.50302C19.7649 3.49465 19.6697 3.42863 19.6241 3.33031L18.3489 0.585624C18.2414 0.354158 17.9123 0.354158 17.8048 0.585624L16.5296 3.33031C16.484 3.42863 16.3888 3.49465 16.2807 3.50302L13.0719 3.75137C12.7997 3.77244 12.6949 4.11657 12.9091 4.28585L15.3047 6.17914C15.3977 6.25264 15.4387 6.374 15.4093 6.48884L14.6831 9.32864C14.6181 9.58316 14.8884 9.79247 15.1185 9.66576L17.9321 8.11652Z" fill="#FF6F61"/>
<path d="M29.8619 8.10788C29.9483 8.06331 30.0508 8.06331 30.1372 8.10788L33.1959 9.68682C33.428 9.80661 33.6917 9.59324 33.623 9.34129L32.8474 6.49788C32.8148 6.37857 32.8588 6.25152 32.9582 6.17789L35.5033 4.29223C35.7269 4.12655 35.6239 3.77211 35.3464 3.75197L31.8998 3.50188C31.7938 3.49419 31.6998 3.43105 31.6527 3.33587L30.2684 0.54243C30.1581 0.32004 29.841 0.320039 29.7307 0.542429L28.3464 3.33587C28.2993 3.43105 28.2053 3.49419 28.0993 3.50188L24.6527 3.75197C24.3752 3.77211 24.2722 4.12655 24.4958 4.29223L27.0409 6.17789C27.1403 6.25152 27.1843 6.37857 27.1517 6.49788L26.3761 9.34129C26.3074 9.59324 26.5711 9.80661 26.8032 9.68682L29.8619 8.10788Z" fill="#FF6F61"/>
<path d="M41.7788 8.11652C41.8689 8.06691 41.9781 8.06691 42.0682 8.11652L44.8819 9.66576C45.112 9.79247 45.3823 9.58316 45.3172 9.32864L44.591 6.48884C44.5617 6.374 44.6027 6.25264 44.6957 6.17914L47.0913 4.28585C47.3055 4.11657 47.2006 3.77244 46.9285 3.75137L43.7197 3.50302C43.6116 3.49465 43.5164 3.42863 43.4707 3.33031L42.1956 0.585624C42.0881 0.354158 41.759 0.354158 41.6515 0.585624L40.3763 3.33031C40.3306 3.42863 40.2355 3.49465 40.1274 3.50302L36.9186 3.75137C36.6464 3.77244 36.5415 4.11657 36.7557 4.28585L39.1514 6.17914C39.2444 6.25264 39.2854 6.374 39.256 6.48884L38.5298 9.32864C38.4647 9.58316 38.735 9.79247 38.9652 9.66576L41.7788 8.11652Z" fill="#FF6F61"/>
<path d="M53.7086 8.10788C53.7949 8.06331 53.8975 8.06331 53.9838 8.10788L57.0426 9.68682C57.2747 9.80661 57.5384 9.59324 57.4696 9.34129L56.6941 6.49788C56.6615 6.37857 56.7055 6.25152 56.8049 6.17789L59.3499 4.29223C59.5735 4.12655 59.4706 3.77211 59.193 3.75197L55.7464 3.50188C55.6405 3.49419 55.5465 3.43105 55.4993 3.33587L54.115 0.54243C54.0048 0.32004 53.6876 0.320039 53.5774 0.542429L52.1931 3.33587C52.1459 3.43105 52.052 3.49419 51.946 3.50188L48.4994 3.75197C48.2218 3.77211 48.1189 4.12655 48.3425 4.29223L50.8876 6.17789C50.9869 6.25152 51.031 6.37857 50.9984 6.49788L50.2228 9.34129C50.1541 9.59324 50.4178 9.80661 50.6499 9.68682L53.7086 8.10788Z" fill="#FF6F61"/>
</svg>
